# xmcd CD database file
#
# Track frame offsets:
#	150
#	17041
#	34383
#	48634
#	72145
#	86005
#	102799
#	115366
#	129490
#	144705
#	158742
#	173026
#
# Disc length: 2497 seconds
#
# Revision: 0
# Processed by: cddbd v1.4PL0 Copyright (c) Steve Scherf et al.
# Submitted via: CDex 1.40Release
#
DISCID=a309bf0c
DTITLE=Greg Trooper - Floating
DYEAR=2003
DGENRE=Country
TTITLE0=The road so long
TTITLE1=When my tears break through
TTITLE2=Lucky that way
TTITLE3=Floating
TTITLE4=Hummingbird
TTITLE5=Apology
TTITLE6=From only you
TTITLE7=Rose, with you
TTITLE8=December skies
TTITLE9=Inisheer
TTITLE10=Muhammed Ali
TTITLE11=The lasting king
EXTD=YEAR: 2003 ID3G: 2
EXTT0=
EXTT1=
EXTT2=
EXTT3=
EXTT4=
EXTT5=
EXTT6=
EXTT7=
EXTT8=
EXTT9=
EXTT10=
EXTT11=
PLAYORDER=
